<?xml version="1.0" standalone="no"?>
<!DOCTYPE svg PUBLIC "-//W3C//DTD SVG 20010904//EN"
 "http://www.w3.org/TR/2001/REC-SVG-20010904/DTD/svg10.dtd">
<svg version="1.0" xmlns="http://www.w3.org/2000/svg"
 width="403.000000pt" height="432.000000pt" viewBox="0 0 403.000000 432.000000"
 preserveAspectRatio="xMidYMid meet">

<g transform="translate(0.000000,432.000000) scale(0.100000,-0.100000)"
fill="#000000" stroke="none">
<path d="M1857 4225 c-26 -9 -131 -64 -235 -123 -1468 -845 -1364 -778 -1443
-936 l-44 -89 -3 -886 c-2 -590 1 -902 8 -935 16 -77 64 -166 122 -228 55 -60
28 -44 1257 -753 151 -87 301 -166 333 -176 83 -26 219 -26 299 1 33 11 272
143 532 293 260 150 589 340 731 422 194 112 273 163 312 203 60 60 117 164
134 245 7 37 10 316 8 923 l-3 869 -23 60 c-27 74 -99 181 -146 218 -42 33
-1437 839 -1516 876 -47 22 -71 26 -165 28 -77 2 -124 -2 -158 -12z m571 -402
c2 -13 -5 -35 -16 -50 -11 -16 -54 -96 -95 -180 -42 -83 -81 -154 -86 -157
-13 -9 -40 4 -51 24 -7 12 10 54 67 166 107 210 118 226 151 222 19 -2 28 -10
30 -25z m316 -75 c9 -15 1 -28 -50 -80 -33 -35 -100 -116 -148 -180 -104 -140
-133 -162 -156 -117 -14 24 -10 30 106 180 130 166 182 221 212 217 14 -2 30
-11 36 -20z m266 -152 c17 -21 9 -30 -125 -152 -66 -60 -166 -150 -222 -201
-111 -101 -147 -116 -159 -67 -4 16 -2 31 7 39 89 85 458 395 470 395 9 0 22
-7 29 -14z m-853 -347 c69 -33 129 -94 165 -167 34 -69 37 -196 8 -274 -28
-76 -104 -159 -178 -195 -50 -25 -68 -28 -152 -28 -84 0 -102 3 -152 28 -74
36 -150 119 -178 195 -29 78 -26 205 8 274 89 181 297 254 479 167z m-772
-1296 c66 -126 140 -268 166 -317 l47 -90 -1 315 -2 314 110 0 110 0 3 -458 2
-457 -166 2 -166 3 -162 312 c-89 172 -164 315 -167 317 -2 2 -3 -139 -1 -315
l3 -319 -110 0 -111 0 0 453 c0 250 3 457 7 460 3 4 77 7 163 7 l156 0 119
-227z m1054 -100 c52 -177 97 -321 99 -318 2 2 45 147 96 322 l92 318 164 0
165 0 3 -457 2 -458 -116 0 -115 0 3 324 c2 178 2 323 1 322 -2 -1 -41 -139
-88 -307 -47 -167 -88 -312 -91 -321 -5 -16 -20 -18 -124 -18 l-120 0 -6 27
c-4 15 -46 163 -93 330 l-86 302 3 -330 4 -329 -111 0 -111 0 0 453 c0 250 3
457 7 461 4 3 79 5 167 4 l161 -3 94 -322z"/>
</g>
</svg>
